<?xml version="1.0" encoding="utf-8" standalone="no"?><!DOCTYPE svg PUBLIC "-//W3C//DTD SVG 20010904//EN" "http://www.w3.org/TR/2001/REC-SVG-20010904/DTD/svg10.dtd">
<svg  xmlns="http://www.w3.org/2000/svg" xmlns:xlink="http://www.w3.org/1999/xlink" width="375px" height="368px" class="sequence simple"><desc></desc><defs><marker viewBox="0 0 5 5" markerWidth="5" markerHeight="5" orient="auto" refX="5" refY="2.5" id="markerArrowBlock"><path d="M 0 0 L 5 2.5 L 0 5 z"></path></marker><marker viewBox="0 0 9.6 16" markerWidth="4" markerHeight="16" orient="auto" refX="9.6" refY="8" id="markerArrowOpen"><path d="M 9.6,8 1.92,16 0,13.7 5.76,8 0,2.286 1.92,0 9.6,8 z"></path></marker></defs><g class="title"></g><g class="actor"><rect x="25" y="20" width="76" height="36" stroke="#000000" fill="#ffffff" style="stroke-width: 2;"></rect><text x="35" y="44" style="font-size: 16px; font-family: &quot;Andale Mono&quot;, monospace;"><tspan x="35">browser</tspan></text></g><g class="actor"><rect x="25" y="312" width="76" height="36" stroke="#000000" fill="#ffffff" style="stroke-width: 2;"></rect><text x="35" y="336" style="font-size: 16px; font-family: &quot;Andale Mono&quot;, monospace;"><tspan x="35">browser</tspan></text></g><line x1="63" x2="63" y1="56" y2="312" stroke="#000000" fill="none" style="stroke-width: 2;"></line><g class="actor"><rect x="269" y="20" width="76" height="36" stroke="#000000" fill="#ffffff" style="stroke-width: 2;"></rect><text x="279" y="44" style="font-size: 16px; font-family: &quot;Andale Mono&quot;, monospace;"><tspan x="279">service</tspan></text></g><g class="actor"><rect x="269" y="312" width="76" height="36" stroke="#000000" fill="#ffffff" style="stroke-width: 2;"></rect><text x="279" y="336" style="font-size: 16px; font-family: &quot;Andale Mono&quot;, monospace;"><tspan x="279">service</tspan></text></g><line x1="307" x2="307" y1="56" y2="312" stroke="#000000" fill="none" style="stroke-width: 2;"></line><g class="note"><rect x="10" y="76" width="106" height="26" stroke="#000000" fill="#ffffff" style="stroke-width: 2;"></rect><text x="15" y="95" style="font-size: 16px; font-family: &quot;Andale Mono&quot;, monospace;"><tspan x="15">发送断开请求</tspan></text></g><g class="signal"><text x="137" y="133" style="font-size: 16px; font-family: &quot;Andale Mono&quot;, monospace;"><tspan x="137">FIN=1，seq=u</tspan></text><line x1="63" x2="307" y1="138" y2="138" stroke="#000000" fill="none" style="stroke-width: 2; marker-end: url(&quot;#markerArrowBlock&quot;);"></line></g><g class="signal"><text x="101" y="169" style="font-size: 16px; font-family: &quot;Andale Mono&quot;, monospace;"><tspan x="101">ACK=1，seq=v，ack=u+1</tspan></text><line x1="307" x2="63" y1="174" y2="174" stroke="#000000" fill="none" style="stroke-width: 2; marker-end: url(&quot;#markerArrowBlock&quot;);"></line></g><g class="signal"><text x="73" y="205" style="font-size: 16px; font-family: &quot;Andale Mono&quot;, monospace;"><tspan x="73">FIN=1，ACK=1，seq=w，ack=u+1</tspan></text><line x1="63" x2="307" y1="210" y2="210" stroke="#000000" fill="none" style="stroke-width: 2; marker-end: url(&quot;#markerArrowBlock&quot;);"></line></g><g class="signal"><text x="93" y="241" style="font-size: 16px; font-family: &quot;Andale Mono&quot;, monospace;"><tspan x="93">ACK=1，seq=u+1，ack=w+1</tspan></text><line x1="307" x2="63" y1="246" y2="246" stroke="#000000" fill="none" style="stroke-width: 2; marker-end: url(&quot;#markerArrowBlock&quot;);"></line></g><g class="note"><rect x="26" y="266" width="74" height="26" stroke="#000000" fill="#ffffff" style="stroke-width: 2;"></rect><text x="31" y="285" style="font-size: 16px; font-family: &quot;Andale Mono&quot;, monospace;"><tspan x="31">断开连接</tspan></text></g></svg>