<?xml version="1.0" encoding="utf-8" standalone="no"?><!DOCTYPE svg PUBLIC "-//W3C//DTD SVG 20010904//EN" "http://www.w3.org/TR/2001/REC-SVG-20010904/DTD/svg10.dtd">
<svg xmlns="http://www.w3.org/2000/svg"  xmlns:xlink="http://www.w3.org/1999/xlink" width="550px" height="378px" class="sequence simple"><desc></desc><defs><marker viewBox="0 0 5 5" markerWidth="5" markerHeight="5" orient="auto" refX="5" refY="2.5" id="markerArrowBlock"><path d="M 0 0 L 5 2.5 L 0 5 z"></path></marker><marker viewBox="0 0 9.6 16" markerWidth="4" markerHeight="16" orient="auto" refX="9.6" refY="8" id="markerArrowOpen"><path d="M 9.6,8 1.92,16 0,13.7 5.76,8 0,2.286 1.92,0 9.6,8 z"></path></marker></defs><g class="title"></g><g class="actor"><rect x="25" y="20" width="76" height="36" stroke="#000000" fill="#ffffff" style="stroke-width: 2;"></rect><text x="35" y="44" style="font-size: 16px; font-family: &quot;Andale Mono&quot;, monospace;"><tspan x="35">browser</tspan></text></g><g class="actor"><rect x="25" y="322" width="76" height="36" stroke="#000000" fill="#ffffff" style="stroke-width: 2;"></rect><text x="35" y="346" style="font-size: 16px; font-family: &quot;Andale Mono&quot;, monospace;"><tspan x="35">browser</tspan></text></g><line x1="63" x2="63" y1="56" y2="322" stroke="#000000" fill="none" style="stroke-width: 2;"></line><g class="actor"><rect x="381" y="20" width="76" height="36" stroke="#000000" fill="#ffffff" style="stroke-width: 2;"></rect><text x="391" y="44" style="font-size: 16px; font-family: &quot;Andale Mono&quot;, monospace;"><tspan x="391">service</tspan></text></g><g class="actor"><rect x="381" y="322" width="76" height="36" stroke="#000000" fill="#ffffff" style="stroke-width: 2;"></rect><text x="391" y="346" style="font-size: 16px; font-family: &quot;Andale Mono&quot;, monospace;"><tspan x="391">service</tspan></text></g><line x1="419" x2="419" y1="56" y2="322" stroke="#000000" fill="none" style="stroke-width: 2;"></line><g class="note"><rect x="10" y="76" width="106" height="26" stroke="#000000" fill="#ffffff" style="stroke-width: 2;"></rect><text x="15" y="95" style="font-size: 16px; font-family: &quot;Andale Mono&quot;, monospace;"><tspan x="15">发送连接请求</tspan></text></g><g class="signal"><text x="157" y="133" style="font-size: 16px; font-family: &quot;Andale Mono&quot;, monospace;"><tspan x="157">SYN=1，seq=client_isn</tspan></text><line x1="63" x2="419" y1="138" y2="138" stroke="#000000" fill="none" style="stroke-width: 2; marker-end: url(&quot;#markerArrowBlock&quot;);"></line></g><g class="note"><rect x="366" y="158" width="106" height="26" stroke="#000000" fill="#ffffff" style="stroke-width: 2;"></rect><text x="371" y="177" style="font-size: 16px; font-family: &quot;Andale Mono&quot;, monospace;"><tspan x="371">处理连接请求</tspan></text></g><g class="signal"><text x="81" y="215" style="font-size: 16px; font-family: &quot;Andale Mono&quot;, monospace;"><tspan x="81">SYN=1，seq=service_isn，ack=client_isn+1</tspan></text><line x1="419" x2="63" y1="220" y2="220" stroke="#000000" fill="none" style="stroke-width: 2; marker-end: url(&quot;#markerArrowBlock&quot;);"></line></g><g class="note"><rect x="46" y="240" width="34" height="26" stroke="#000000" fill="#ffffff" style="stroke-width: 2;"></rect><text x="51" y="259" style="font-size: 16px; font-family: &quot;Andale Mono&quot;, monospace;"><tspan x="51">ACK</tspan></text></g><g class="signal"><text x="73" y="297" style="font-size: 16px; font-family: &quot;Andale Mono&quot;, monospace;"><tspan x="73">SYN=0，seq=client_isn+1，ack=service_isn+1</tspan></text><line x1="63" x2="419" y1="302" y2="302" stroke="#000000" fill="none" style="stroke-width: 2; marker-end: url(&quot;#markerArrowBlock&quot;);"></line></g></svg>
